<?xml version="1.0" encoding="UTF-8" standalone="no"?>
<svg width="16" height="16" viewBox="0 0 16 16" fill="none" xmlns="http://www.w3.org/2000/svg">
  <path d="M8 10C9.10457 10 10 9.10457 10 8C10 6.89543 9.10457 6 8 6C6.89543 6 6 6.89543 6 8C6 9.10457 6.89543 10 8 10Z" stroke="currentColor" stroke-width="1.5" stroke-linecap="round" stroke-linejoin="round"/>
  <path d="M12.9 9.5C12.8 9.8 12.9 10.2 13.1 10.4L13.2 10.5C13.4 10.7 13.4 11 13.2 11.2L12.4 12C12.2 12.2 11.9 12.2 11.7 12L11.6 11.9C11.4 11.7 11 11.6 10.7 11.7L10.6 11.7C10.3 11.8 10 12.1 10 12.4V12.5C10 12.8 9.8 13 9.5 13H8.5C8.2 13 8 12.8 8 12.5V12.4C8 12.1 7.7 11.8 7.4 11.7L7.3 11.7C7 11.6 6.6 11.7 6.4 11.9L6.3 12C6.1 12.2 5.8 12.2 5.6 12L4.8 11.2C4.6 11 4.6 10.7 4.8 10.5L4.9 10.4C5.1 10.2 5.2 9.8 5.1 9.5L5.1 9.4C5 9.1 4.7 8.8 4.4 8.8H4.3C4 8.8 3.8 8.6 3.8 8.3V7.3C3.8 7 4 6.8 4.3 6.8H4.4C4.7 6.8 5 6.5 5.1 6.2L5.1 6.1C5.2 5.8 5.1 5.4 4.9 5.2L4.8 5.1C4.6 4.9 4.6 4.6 4.8 4.4L5.6 3.6C5.8 3.4 6.1 3.4 6.3 3.6L6.4 3.7C6.6 3.9 7 4 7.3 3.9L7.4 3.9C7.7 3.8 8 3.5 8 3.2V3.1C8 2.8 8.2 2.6 8.5 2.6H9.5C9.8 2.6 10 2.8 10 3.1V3.2C10 3.5 10.3 3.8 10.6 3.9L10.7 3.9C11 4 11.4 3.9 11.6 3.7L11.7 3.6C11.9 3.4 12.2 3.4 12.4 3.6L13.2 4.4C13.4 4.6 13.4 4.9 13.2 5.1L13.1 5.2C12.9 5.4 12.8 5.8 12.9 6.1L12.9 6.2C13 6.5 13.3 6.8 13.6 6.8H13.7C14 6.8 14.2 7 14.2 7.3V8.3C14.2 8.6 14 8.8 13.7 8.8H13.6C13.3 8.8 13 9.1 12.9 9.4L12.9 9.5Z" stroke="currentColor" stroke-width="1.5" stroke-linecap="round" stroke-linejoin="round"/>
</svg>
