<svg xmlns="http://www.w3.org/2000/svg" width="300" height="400" viewBox="0 0 300 400">
  <!-- Background -->
  <rect width="300" height="400" fill="#ffffff" />
  
  <!-- Title -->
  <text x="150" y="30" font-family="Arial" font-size="16" fill="#212121" text-anchor="middle">Scan to Visit DMac Website</text>
  
  <!-- QR Code (Placeholder) -->
  <rect x="50" y="50" width="200" height="200" fill="#f5f5f5" stroke="#212121" />
  <g transform="translate(60, 60)">
    <!-- This is a simplified QR code pattern -->
    <rect x="0" y="0" width="20" height="20" fill="#212121" />
    <rect x="20" y="0" width="20" height="20" fill="#212121" />
    <rect x="40" y="0" width="20" height="20" fill="#212121" />
    <rect x="60" y="0" width="20" height="20" fill="#ffffff" />
    <rect x="80" y="0" width="20" height="20" fill="#212121" />
    <rect x="100" y="0" width="20" height="20" fill="#ffffff" />
    <rect x="120" y="0" width="20" height="20" fill="#212121" />
    <rect x="140" y="0" width="20" height="20" fill="#212121" />
    <rect x="160" y="0" width="20" height="20" fill="#212121" />
    
    <rect x="0" y="20" width="20" height="20" fill="#212121" />
    <rect x="20" y="20" width="20" height="20" fill="#ffffff" />
    <rect x="40" y="20" width="20" height="20" fill="#ffffff" />
    <rect x="60" y="20" width="20" height="20" fill="#ffffff" />
    <rect x="80" y="20" width="20" height="20" fill="#212121" />
    <rect x="100" y="20" width="20" height="20" fill="#ffffff" />
    <rect x="120" y="20" width="20" height="20" fill="#ffffff" />
    <rect x="140" y="20" width="20" height="20" fill="#ffffff" />
    <rect x="160" y="20" width="20" height="20" fill="#212121" />
    
    <rect x="0" y="40" width="20" height="20" fill="#212121" />
    <rect x="20" y="40" width="20" height="20" fill="#ffffff" />
    <rect x="40" y="40" width="20" height="20" fill="#212121" />
    <rect x="60" y="40" width="20" height="20" fill="#ffffff" />
    <rect x="80" y="40" width="20" height="20" fill="#212121" />
    <rect x="100" y="40" width="20" height="20" fill="#ffffff" />
    <rect x="120" y="40" width="20" height="20" fill="#212121" />
    <rect x="140" y="40" width="20" height="20" fill="#ffffff" />
    <rect x="160" y="40" width="20" height="20" fill="#212121" />
    
    <rect x="0" y="60" width="20" height="20" fill="#212121" />
    <rect x="20" y="60" width="20" height="20" fill="#ffffff" />
    <rect x="40" y="60" width="20" height="20" fill="#ffffff" />
    <rect x="60" y="60" width="20" height="20" fill="#ffffff" />
    <rect x="80" y="60" width="20" height="20" fill="#212121" />
    <rect x="100" y="60" width="20" height="20" fill="#212121" />
    <rect x="120" y="60" width="20" height="20" fill="#ffffff" />
    <rect x="140" y="60" width="20" height="20" fill="#212121" />
    <rect x="160" y="60" width="20" height="20" fill="#ffffff" />
    
    <rect x="0" y="80" width="20" height="20" fill="#212121" />
    <rect x="20" y="80" width="20" height="20" fill="#212121" />
    <rect x="40" y="80" width="20" height="20" fill="#212121" />
    <rect x="60" y="80" width="20" height="20" fill="#212121" />
    <rect x="80" y="80" width="20" height="20" fill="#212121" />
    <rect x="100" y="80" width="20" height="20" fill="#ffffff" />
    <rect x="120" y="80" width="20" height="20" fill="#ffffff" />
    <rect x="140" y="80" width="20" height="20" fill="#212121" />
    <rect x="160" y="80" width="20" height="20" fill="#ffffff" />
    
    <rect x="0" y="100" width="20" height="20" fill="#ffffff" />
    <rect x="20" y="100" width="20" height="20" fill="#ffffff" />
    <rect x="40" y="100" width="20" height="20" fill="#ffffff" />
    <rect x="60" y="100" width="20" height="20" fill="#ffffff" />
    <rect x="80" y="100" width="20" height="20" fill="#ffffff" />
    <rect x="100" y="100" width="20" height="20" fill="#212121" />
    <rect x="120" y="100" width="20" height="20" fill="#ffffff" />
    <rect x="140" y="100" width="20" height="20" fill="#212121" />
    <rect x="160" y="100" width="20" height="20" fill="#ffffff" />
    
    <rect x="0" y="120" width="20" height="20" fill="#212121" />
    <rect x="20" y="120" width="20" height="20" fill="#ffffff" />
    <rect x="40" y="120" width="20" height="20" fill="#212121" />
    <rect x="60" y="120" width="20" height="20" fill="#212121" />
    <rect x="80" y="120" width="20" height="20" fill="#ffffff" />
    <rect x="100" y="120" width="20" height="20" fill="#212121" />
    <rect x="120" y="120" width="20" height="20" fill="#ffffff" />
    <rect x="140" y="120" width="20" height="20" fill="#ffffff" />
    <rect x="160" y="120" width="20" height="20" fill="#212121" />
    
    <rect x="0" y="140" width="20" height="20" fill="#212121" />
    <rect x="20" y="140" width="20" height="20" fill="#ffffff" />
    <rect x="40" y="140" width="20" height="20" fill="#ffffff" />
    <rect x="60" y="140" width="20" height="20" fill="#212121" />
    <rect x="80" y="140" width="20" height="20" fill="#ffffff" />
    <rect x="100" y="140" width="20" height="20" fill="#212121" />
    <rect x="120" y="140" width="20" height="20" fill="#212121" />
    <rect x="140" y="140" width="20" height="20" fill="#ffffff" />
    <rect x="160" y="140" width="20" height="20" fill="#212121" />
    
    <rect x="0" y="160" width="20" height="20" fill="#212121" />
    <rect x="20" y="160" width="20" height="20" fill="#212121" />
    <rect x="40" y="160" width="20" height="20" fill="#212121" />
    <rect x="60" y="160" width="20" height="20" fill="#ffffff" />
    <rect x="80" y="160" width="20" height="20" fill="#212121" />
    <rect x="100" y="160" width="20" height="20" fill="#ffffff" />
    <rect x="120" y="160" width="20" height="20" fill="#212121" />
    <rect x="140" y="160" width="20" height="20" fill="#212121" />
    <rect x="160" y="160" width="20" height="20" fill="#212121" />
  </g>
  
  <!-- URL -->
  <text x="150" y="280" font-family="Arial" font-size="14" fill="#212121" text-anchor="middle">dmac-ai.netlify.app</text>
  
  <!-- DMac Logo -->
  <g transform="translate(100, 300) scale(0.5)">
    <!-- D Letter -->
    <path d="M30 15 L30 45 L45 45 C52 45 58 40 58 30 C58 20 52 15 45 15 Z" fill="#6200ee" />
    
    <!-- M Letter -->
    <path d="M65 15 L65 45 L75 45 L75 25 L85 40 L95 25 L95 45 L105 45 L105 15 L95 15 L85 30 L75 15 Z" fill="#6200ee" />
    
    <!-- a Letter -->
    <path d="M115 25 C115 20 120 15 125 15 C130 15 135 20 135 25 L135 45 L125 45 L125 40 C123 43 120 45 115 45 C110 45 105 40 105 35 C105 30 110 25 115 25 Z" fill="#03dac6" />
    <circle cx="125" cy="30" r="5" fill="#ffffff" />
    
    <!-- c Letter -->
    <path d="M145 25 C145 20 150 15 155 15 C160 15 165 20 165 25 L165 30 L155 30 L155 25 L145 25 L145 35 L155 35 L155 30 L165 30 L165 35 C165 40 160 45 155 45 C150 45 145 40 145 35 Z" fill="#03dac6" />
  </g>
  
  <!-- Conference Info -->
  <text x="150" y="380" font-family="Arial" font-size="12" fill="#212121" text-anchor="middle">AI Conference Presentation</text>
  <text x="150" y="395" font-family="Arial" font-size="12" fill="#212121" text-anchor="middle">April 8, 2025</text>
</svg>
