<?xml version="1.0" encoding="UTF-8" standalone="no"?>
<svg width="128" height="128" viewBox="0 0 128 128" fill="none" xmlns="http://www.w3.org/2000/svg">
  <rect width="128" height="128" rx="16" fill="#2C2C32"/>
  <path d="M64 16C37.49 16 16 37.49 16 64C16 90.51 37.49 112 64 112C90.51 112 112 90.51 112 64C112 37.49 90.51 16 64 16ZM64 104C42.09 104 24 85.91 24 64C24 42.09 42.09 24 64 24C85.91 24 104 42.09 104 64C104 85.91 85.91 104 64 104Z" fill="#007ACC"/>
  <path d="M88 64L72 48V56H40V72H72V80L88 64Z" fill="#007ACC"/>
</svg>
