<?xml version="1.0" encoding="UTF-8" standalone="no"?>
<svg width="200" height="200" viewBox="0 0 200 200" xmlns="http://www.w3.org/2000/svg">
  <defs>
    <linearGradient id="gradient" x1="0%" y1="0%" x2="100%" y2="100%">
      <stop offset="0%" stop-color="#1976d2" />
      <stop offset="100%" stop-color="#ff5722" />
    </linearGradient>
  </defs>
  <circle cx="100" cy="100" r="90" fill="#ffffff" stroke="url(#gradient)" stroke-width="10" />
  <g transform="translate(50, 60)">
    <path d="M0,0 L0,80 L20,80 C40,80 50,70 50,50 L50,30 C50,10 40,0 20,0 Z" fill="#1976d2" />
    <path d="M0,0 L0,80 L20,80 C40,80 50,70 50,50 L50,30 C50,10 40,0 20,0 Z" fill="#1976d2" transform="translate(0, 0)" />
    <path d="M60,0 L60,80 L80,80 L100,30 L100,80 L120,80 L120,0 L100,0 L80,50 L80,0 Z" fill="#ff5722" transform="translate(-10, 0)" />
  </g>
</svg>
